<mxfile host="app.diagrams.net" agent="Mozilla/5.0 (Windows NT 10.0; Win64; x64) AppleWebKit/537.36 (KHTML, like Gecko) Chrome/134.0.0.0 Safari/537.36 Edg/134.0.0.0" version="26.1.1">
  <diagram name="第 1 页" id="xtWA2BFWSO_vwdr7kO1s">
    <mxGraphModel dx="3565" dy="2873" grid="1" gridSize="10" guides="1" tooltips="1" connect="1" arrows="1" fold="1" page="1" pageScale="1" pageWidth="1600" pageHeight="900" math="0" shadow="0">
      <root>
        <mxCell id="0" />
        <mxCell id="1" parent="0" />
        <mxCell id="_7oDfedrvnOzriQi7gFX-59" value="" style="rounded=1;whiteSpace=wrap;html=1;fillColor=#f8cecc;strokeColor=#b85450;opacity=50;arcSize=8;" vertex="1" parent="1">
          <mxGeometry x="850" y="700" width="140" height="340" as="geometry" />
        </mxCell>
        <mxCell id="_7oDfedrvnOzriQi7gFX-31" value="" style="rounded=1;whiteSpace=wrap;html=1;fillColor=#dae8fc;strokeColor=#6c8ebf;opacity=50;arcSize=8;" vertex="1" parent="1">
          <mxGeometry x="385" y="700" width="270" height="340" as="geometry" />
        </mxCell>
        <mxCell id="btyJTS1Y750vnI5qGrP--104" value="" style="rounded=1;whiteSpace=wrap;html=1;fillColor=#dae8fc;strokeColor=#6c8ebf;opacity=50;arcSize=8;" parent="1" vertex="1">
          <mxGeometry x="55" y="330" width="1480" height="740" as="geometry" />
        </mxCell>
        <mxCell id="btyJTS1Y750vnI5qGrP--25" value="" style="rounded=1;whiteSpace=wrap;html=1;fillColor=#dae8fc;strokeColor=#6c8ebf;opacity=50;" parent="1" vertex="1">
          <mxGeometry x="50" y="-20" width="1490" height="330" as="geometry" />
        </mxCell>
        <mxCell id="btyJTS1Y750vnI5qGrP--1" value="&lt;font&gt;2D卷积，卷积核3，填充1，步长1&lt;/font&gt;" style="rounded=0;whiteSpace=wrap;html=1;rotation=-90;fontSize=20;fontFamily=Times New Roman;fillColor=#dae8fc;strokeColor=#6c8ebf;" parent="1" vertex="1">
          <mxGeometry x="560" y="125" width="320" height="40" as="geometry" />
        </mxCell>
        <mxCell id="btyJTS1Y750vnI5qGrP--2" value="" style="endArrow=classic;html=1;rounded=0;entryX=0;entryY=0.5;entryDx=0;entryDy=0;exitX=1;exitY=0.5;exitDx=0;exitDy=0;" parent="1" source="btyJTS1Y750vnI5qGrP--3" target="btyJTS1Y750vnI5qGrP--4" edge="1">
          <mxGeometry width="50" height="50" relative="1" as="geometry">
            <mxPoint x="350" y="169.99" as="sourcePoint" />
            <mxPoint x="340" y="139.99" as="targetPoint" />
          </mxGeometry>
        </mxCell>
        <mxCell id="btyJTS1Y750vnI5qGrP--3" value="上下文体积&lt;div&gt;形状: B, C, D, H, W&lt;/div&gt;" style="text;html=1;align=center;verticalAlign=middle;whiteSpace=wrap;rounded=0;fontFamily=Times New Roman;fontSize=25;" parent="1" vertex="1">
          <mxGeometry x="50" y="112.62" width="220" height="65.26" as="geometry" />
        </mxCell>
        <mxCell id="btyJTS1Y750vnI5qGrP--6" style="edgeStyle=orthogonalEdgeStyle;rounded=0;orthogonalLoop=1;jettySize=auto;html=1;entryX=0;entryY=0.5;entryDx=0;entryDy=0;" parent="1" source="btyJTS1Y750vnI5qGrP--4" target="btyJTS1Y750vnI5qGrP--5" edge="1">
          <mxGeometry relative="1" as="geometry" />
        </mxCell>
        <mxCell id="btyJTS1Y750vnI5qGrP--4" value="改变形状" style="rounded=1;whiteSpace=wrap;html=1;fontFamily=Times New Roman;fontSize=25;fillColor=#f5f5f5;fontColor=#333333;strokeColor=#666666;" parent="1" vertex="1">
          <mxGeometry x="300" y="121.72999999999999" width="120" height="47.11" as="geometry" />
        </mxCell>
        <mxCell id="btyJTS1Y750vnI5qGrP--9" style="edgeStyle=orthogonalEdgeStyle;rounded=0;orthogonalLoop=1;jettySize=auto;html=1;entryX=0.5;entryY=0;entryDx=0;entryDy=0;" parent="1" source="btyJTS1Y750vnI5qGrP--5" target="btyJTS1Y750vnI5qGrP--1" edge="1">
          <mxGeometry relative="1" as="geometry" />
        </mxCell>
        <mxCell id="btyJTS1Y750vnI5qGrP--5" value="上下文体积&lt;div&gt;形状: BD, C, H, W&lt;/div&gt;" style="text;html=1;align=center;verticalAlign=middle;whiteSpace=wrap;rounded=0;fontFamily=Times New Roman;fontSize=25;" parent="1" vertex="1">
          <mxGeometry x="440" y="112.37" width="220" height="65.26" as="geometry" />
        </mxCell>
        <mxCell id="btyJTS1Y750vnI5qGrP--7" value="批处理归一化" style="rounded=0;whiteSpace=wrap;html=1;rotation=-90;fontSize=20;fontFamily=Times New Roman;fillColor=#d5e8d4;strokeColor=#82b366;" parent="1" vertex="1">
          <mxGeometry x="600" y="124.99999999999999" width="320" height="40" as="geometry" />
        </mxCell>
        <mxCell id="btyJTS1Y750vnI5qGrP--14" style="rounded=0;orthogonalLoop=1;jettySize=auto;html=1;entryX=0.5;entryY=0;entryDx=0;entryDy=0;" parent="1" source="btyJTS1Y750vnI5qGrP--8" target="_7oDfedrvnOzriQi7gFX-1" edge="1">
          <mxGeometry relative="1" as="geometry">
            <mxPoint x="849.9999999999995" y="145.26" as="targetPoint" />
          </mxGeometry>
        </mxCell>
        <mxCell id="btyJTS1Y750vnI5qGrP--8" value="ReLU激活函数" style="rounded=0;whiteSpace=wrap;html=1;rotation=-90;fontSize=20;fontFamily=Times New Roman;fillColor=#fff2cc;strokeColor=#d6b656;" parent="1" vertex="1">
          <mxGeometry x="640" y="125.28999999999999" width="320" height="40" as="geometry" />
        </mxCell>
        <mxCell id="btyJTS1Y750vnI5qGrP--19" style="edgeStyle=orthogonalEdgeStyle;rounded=0;orthogonalLoop=1;jettySize=auto;html=1;entryX=0.5;entryY=0;entryDx=0;entryDy=0;" parent="1" target="_7oDfedrvnOzriQi7gFX-6" edge="1">
          <mxGeometry relative="1" as="geometry">
            <mxPoint x="939.9999999999995" y="145.27281296023557" as="sourcePoint" />
            <mxPoint x="990" y="145.26999999999998" as="targetPoint" />
          </mxGeometry>
        </mxCell>
        <mxCell id="btyJTS1Y750vnI5qGrP--20" style="edgeStyle=orthogonalEdgeStyle;rounded=0;orthogonalLoop=1;jettySize=auto;html=1;entryX=0;entryY=0.5;entryDx=0;entryDy=0;exitX=0.5;exitY=1;exitDx=0;exitDy=0;" parent="1" source="_7oDfedrvnOzriQi7gFX-8" target="btyJTS1Y750vnI5qGrP--21" edge="1">
          <mxGeometry relative="1" as="geometry">
            <mxPoint x="1221" y="170.51999999999998" as="targetPoint" />
            <mxPoint x="1131" y="145.54714285714294" as="sourcePoint" />
          </mxGeometry>
        </mxCell>
        <mxCell id="btyJTS1Y750vnI5qGrP--24" style="edgeStyle=orthogonalEdgeStyle;rounded=0;orthogonalLoop=1;jettySize=auto;html=1;entryX=0;entryY=0.5;entryDx=0;entryDy=0;" parent="1" source="btyJTS1Y750vnI5qGrP--21" target="btyJTS1Y750vnI5qGrP--23" edge="1">
          <mxGeometry relative="1" as="geometry" />
        </mxCell>
        <mxCell id="btyJTS1Y750vnI5qGrP--21" value="改变形状" style="rounded=1;whiteSpace=wrap;html=1;fontFamily=Times New Roman;fontSize=25;fillColor=#f5f5f5;fontColor=#333333;strokeColor=#666666;" parent="1" vertex="1">
          <mxGeometry x="1151" y="121.94" width="120" height="47.11" as="geometry" />
        </mxCell>
        <mxCell id="btyJTS1Y750vnI5qGrP--23" value="V&lt;sub&gt;ctx&lt;/sub&gt;&lt;div&gt;shape: B, C, D, H, W&lt;/div&gt;" style="text;html=1;align=center;verticalAlign=middle;whiteSpace=wrap;rounded=0;fontFamily=Times New Roman;fontSize=25;" parent="1" vertex="1">
          <mxGeometry x="1301" y="112.62" width="220" height="65.26" as="geometry" />
        </mxCell>
        <mxCell id="btyJTS1Y750vnI5qGrP--26" value="&lt;font&gt;（a）外观适配器&lt;/font&gt;" style="text;html=1;align=center;verticalAlign=middle;resizable=0;points=[];autosize=1;strokeColor=none;fillColor=none;fontSize=30;fontFamily=Times New Roman;" parent="1" vertex="1">
          <mxGeometry x="50" y="-20.000000000000007" width="250" height="50" as="geometry" />
        </mxCell>
        <mxCell id="_7oDfedrvnOzriQi7gFX-1" value="&lt;font&gt;2D卷积，卷积核3，填充1，步长1&lt;/font&gt;" style="rounded=0;whiteSpace=wrap;html=1;rotation=-90;fontSize=20;fontFamily=Times New Roman;fillColor=#dae8fc;strokeColor=#6c8ebf;" vertex="1" parent="1">
          <mxGeometry x="710" y="125.28999999999999" width="320" height="40" as="geometry" />
        </mxCell>
        <mxCell id="_7oDfedrvnOzriQi7gFX-2" value="批处理归一化" style="rounded=0;whiteSpace=wrap;html=1;rotation=-90;fontSize=20;fontFamily=Times New Roman;fillColor=#d5e8d4;strokeColor=#82b366;" vertex="1" parent="1">
          <mxGeometry x="750" y="125.28999999999999" width="320" height="40" as="geometry" />
        </mxCell>
        <mxCell id="_7oDfedrvnOzriQi7gFX-4" value="ReLU激活函数" style="rounded=0;whiteSpace=wrap;html=1;rotation=-90;fontSize=20;fontFamily=Times New Roman;fillColor=#fff2cc;strokeColor=#d6b656;" vertex="1" parent="1">
          <mxGeometry x="790" y="125.57999999999998" width="320" height="40" as="geometry" />
        </mxCell>
        <mxCell id="_7oDfedrvnOzriQi7gFX-6" value="&lt;font&gt;2D卷积，卷积核3，填充1，步长1&lt;/font&gt;" style="rounded=0;whiteSpace=wrap;html=1;rotation=-90;fontSize=20;fontFamily=Times New Roman;fillColor=#dae8fc;strokeColor=#6c8ebf;" vertex="1" parent="1">
          <mxGeometry x="850" y="125.57999999999998" width="320" height="40" as="geometry" />
        </mxCell>
        <mxCell id="_7oDfedrvnOzriQi7gFX-7" value="批处理归一化" style="rounded=0;whiteSpace=wrap;html=1;rotation=-90;fontSize=20;fontFamily=Times New Roman;fillColor=#d5e8d4;strokeColor=#82b366;" vertex="1" parent="1">
          <mxGeometry x="890" y="125.57999999999998" width="320" height="40" as="geometry" />
        </mxCell>
        <mxCell id="_7oDfedrvnOzriQi7gFX-8" value="ReLU激活函数" style="rounded=0;whiteSpace=wrap;html=1;rotation=-90;fontSize=20;fontFamily=Times New Roman;fillColor=#fff2cc;strokeColor=#d6b656;" vertex="1" parent="1">
          <mxGeometry x="930" y="125.86999999999998" width="320" height="40" as="geometry" />
        </mxCell>
        <mxCell id="_7oDfedrvnOzriQi7gFX-9" value="&lt;font&gt;2D卷积，卷积核3，填充1，步长1&lt;/font&gt;" style="rounded=0;whiteSpace=wrap;html=1;rotation=-90;fontSize=20;fontFamily=Times New Roman;fillColor=#dae8fc;strokeColor=#6c8ebf;" vertex="1" parent="1">
          <mxGeometry x="380" y="850" width="320" height="40" as="geometry" />
        </mxCell>
        <mxCell id="_7oDfedrvnOzriQi7gFX-10" value="批处理归一化" style="rounded=0;whiteSpace=wrap;html=1;rotation=-90;fontSize=20;fontFamily=Times New Roman;fillColor=#d5e8d4;strokeColor=#82b366;" vertex="1" parent="1">
          <mxGeometry x="420" y="850" width="320" height="40" as="geometry" />
        </mxCell>
        <mxCell id="_7oDfedrvnOzriQi7gFX-11" value="ReLU激活函数" style="rounded=0;whiteSpace=wrap;html=1;rotation=-90;fontSize=20;fontFamily=Times New Roman;fillColor=#fff2cc;strokeColor=#d6b656;" vertex="1" parent="1">
          <mxGeometry x="460" y="850.29" width="320" height="40" as="geometry" />
        </mxCell>
        <mxCell id="_7oDfedrvnOzriQi7gFX-12" value="&lt;font&gt;2D卷积，卷积核3，填充1，步长2&lt;/font&gt;" style="rounded=0;whiteSpace=wrap;html=1;rotation=-90;fontSize=20;fontFamily=Times New Roman;fillColor=#dae8fc;strokeColor=#6c8ebf;" vertex="1" parent="1">
          <mxGeometry x="260" y="850" width="320" height="40" as="geometry" />
        </mxCell>
        <mxCell id="_7oDfedrvnOzriQi7gFX-13" value="批处理归一化" style="rounded=0;whiteSpace=wrap;html=1;rotation=-90;fontSize=20;fontFamily=Times New Roman;fillColor=#d5e8d4;strokeColor=#82b366;" vertex="1" parent="1">
          <mxGeometry x="300" y="850" width="320" height="40" as="geometry" />
        </mxCell>
        <mxCell id="_7oDfedrvnOzriQi7gFX-14" value="ReLU激活函数" style="rounded=0;whiteSpace=wrap;html=1;rotation=-90;fontSize=20;fontFamily=Times New Roman;fillColor=#fff2cc;strokeColor=#d6b656;" vertex="1" parent="1">
          <mxGeometry x="340" y="850.29" width="320" height="40" as="geometry" />
        </mxCell>
        <mxCell id="_7oDfedrvnOzriQi7gFX-15" value="&lt;font&gt;2D卷积，卷积核3，填充1，步长1&lt;/font&gt;" style="rounded=0;whiteSpace=wrap;html=1;rotation=-90;fontSize=20;fontFamily=Times New Roman;fillColor=#dae8fc;strokeColor=#6c8ebf;" vertex="1" parent="1">
          <mxGeometry x="170" y="500" width="320" height="40" as="geometry" />
        </mxCell>
        <mxCell id="_7oDfedrvnOzriQi7gFX-16" value="批处理归一化" style="rounded=0;whiteSpace=wrap;html=1;rotation=-90;fontSize=20;fontFamily=Times New Roman;fillColor=#d5e8d4;strokeColor=#82b366;" vertex="1" parent="1">
          <mxGeometry x="210" y="500" width="320" height="40" as="geometry" />
        </mxCell>
        <mxCell id="_7oDfedrvnOzriQi7gFX-21" style="rounded=0;orthogonalLoop=1;jettySize=auto;html=1;exitX=0.5;exitY=1;exitDx=0;exitDy=0;entryX=0.5;entryY=0;entryDx=0;entryDy=0;" edge="1" parent="1" source="_7oDfedrvnOzriQi7gFX-17" target="_7oDfedrvnOzriQi7gFX-20">
          <mxGeometry relative="1" as="geometry" />
        </mxCell>
        <mxCell id="_7oDfedrvnOzriQi7gFX-48" style="edgeStyle=orthogonalEdgeStyle;shape=connector;rounded=0;orthogonalLoop=1;jettySize=auto;html=1;exitX=0.5;exitY=1;exitDx=0;exitDy=0;entryX=0.5;entryY=0;entryDx=0;entryDy=0;strokeColor=default;align=center;verticalAlign=middle;fontFamily=Helvetica;fontSize=11;fontColor=default;labelBackgroundColor=default;endArrow=classic;" edge="1" parent="1" source="_7oDfedrvnOzriQi7gFX-17" target="_7oDfedrvnOzriQi7gFX-44">
          <mxGeometry relative="1" as="geometry">
            <Array as="points">
              <mxPoint x="460" y="520" />
              <mxPoint x="460" y="340" />
              <mxPoint x="1106" y="340" />
            </Array>
          </mxGeometry>
        </mxCell>
        <mxCell id="_7oDfedrvnOzriQi7gFX-17" value="ReLU激活函数" style="rounded=0;whiteSpace=wrap;html=1;rotation=-90;fontSize=20;fontFamily=Times New Roman;fillColor=#fff2cc;strokeColor=#d6b656;" vertex="1" parent="1">
          <mxGeometry x="250" y="500.28999999999996" width="320" height="40" as="geometry" />
        </mxCell>
        <mxCell id="_7oDfedrvnOzriQi7gFX-19" style="edgeStyle=orthogonalEdgeStyle;rounded=0;orthogonalLoop=1;jettySize=auto;html=1;exitX=1;exitY=0.5;exitDx=0;exitDy=0;entryX=0.5;entryY=0;entryDx=0;entryDy=0;" edge="1" parent="1" source="_7oDfedrvnOzriQi7gFX-18" target="_7oDfedrvnOzriQi7gFX-15">
          <mxGeometry relative="1" as="geometry" />
        </mxCell>
        <mxCell id="_7oDfedrvnOzriQi7gFX-18" value="相关性体积&lt;br&gt;&lt;div&gt;形状: B, D, H, W&lt;/div&gt;" style="text;html=1;align=center;verticalAlign=middle;whiteSpace=wrap;rounded=0;fontFamily=Times New Roman;fontSize=25;" vertex="1" parent="1">
          <mxGeometry x="50" y="487.6600000000001" width="220" height="65.26" as="geometry" />
        </mxCell>
        <mxCell id="_7oDfedrvnOzriQi7gFX-23" style="edgeStyle=orthogonalEdgeStyle;rounded=0;orthogonalLoop=1;jettySize=auto;html=1;exitX=0.5;exitY=1;exitDx=0;exitDy=0;entryX=0.5;entryY=0;entryDx=0;entryDy=0;" edge="1" parent="1" source="_7oDfedrvnOzriQi7gFX-20" target="_7oDfedrvnOzriQi7gFX-22">
          <mxGeometry relative="1" as="geometry" />
        </mxCell>
        <mxCell id="_7oDfedrvnOzriQi7gFX-29" style="rounded=0;orthogonalLoop=1;jettySize=auto;html=1;exitX=0;exitY=0;exitDx=0;exitDy=0;entryX=1;entryY=0;entryDx=0;entryDy=0;endArrow=none;startFill=0;dashed=1;" edge="1" parent="1" source="_7oDfedrvnOzriQi7gFX-20" target="_7oDfedrvnOzriQi7gFX-12">
          <mxGeometry relative="1" as="geometry" />
        </mxCell>
        <mxCell id="_7oDfedrvnOzriQi7gFX-30" style="edgeStyle=none;shape=connector;rounded=0;orthogonalLoop=1;jettySize=auto;html=1;exitX=0;exitY=1;exitDx=0;exitDy=0;entryX=1;entryY=1;entryDx=0;entryDy=0;dashed=1;strokeColor=default;align=center;verticalAlign=middle;fontFamily=Helvetica;fontSize=11;fontColor=default;labelBackgroundColor=default;startFill=0;endArrow=none;" edge="1" parent="1" source="_7oDfedrvnOzriQi7gFX-20" target="_7oDfedrvnOzriQi7gFX-11">
          <mxGeometry relative="1" as="geometry" />
        </mxCell>
        <mxCell id="_7oDfedrvnOzriQi7gFX-41" style="edgeStyle=orthogonalEdgeStyle;shape=connector;rounded=0;orthogonalLoop=1;jettySize=auto;html=1;entryX=0.5;entryY=0;entryDx=0;entryDy=0;strokeColor=default;align=center;verticalAlign=middle;fontFamily=Helvetica;fontSize=11;fontColor=default;labelBackgroundColor=default;endArrow=classic;exitX=0.5;exitY=1;exitDx=0;exitDy=0;" edge="1" parent="1" source="_7oDfedrvnOzriQi7gFX-20" target="_7oDfedrvnOzriQi7gFX-39">
          <mxGeometry relative="1" as="geometry">
            <Array as="points">
              <mxPoint x="560" y="520" />
              <mxPoint x="560" y="340" />
              <mxPoint x="985" y="340" />
            </Array>
          </mxGeometry>
        </mxCell>
        <mxCell id="_7oDfedrvnOzriQi7gFX-20" value="2D卷积块" style="rounded=0;whiteSpace=wrap;html=1;rotation=-90;fontSize=25;fontFamily=Times New Roman;fillColor=#dae8fc;strokeColor=#6c8ebf;" vertex="1" parent="1">
          <mxGeometry x="360" y="500.28999999999996" width="320" height="40" as="geometry" />
        </mxCell>
        <mxCell id="_7oDfedrvnOzriQi7gFX-25" style="edgeStyle=orthogonalEdgeStyle;rounded=0;orthogonalLoop=1;jettySize=auto;html=1;entryX=0.5;entryY=0;entryDx=0;entryDy=0;" edge="1" parent="1" source="_7oDfedrvnOzriQi7gFX-22" target="_7oDfedrvnOzriQi7gFX-24">
          <mxGeometry relative="1" as="geometry" />
        </mxCell>
        <mxCell id="_7oDfedrvnOzriQi7gFX-36" style="edgeStyle=orthogonalEdgeStyle;shape=connector;rounded=0;orthogonalLoop=1;jettySize=auto;html=1;exitX=0.5;exitY=1;exitDx=0;exitDy=0;entryX=0.5;entryY=0;entryDx=0;entryDy=0;strokeColor=default;align=center;verticalAlign=middle;fontFamily=Helvetica;fontSize=11;fontColor=default;labelBackgroundColor=default;endArrow=classic;" edge="1" parent="1" source="_7oDfedrvnOzriQi7gFX-22" target="_7oDfedrvnOzriQi7gFX-32">
          <mxGeometry relative="1" as="geometry">
            <Array as="points">
              <mxPoint x="640" y="520" />
              <mxPoint x="640" y="340" />
              <mxPoint x="850" y="340" />
            </Array>
          </mxGeometry>
        </mxCell>
        <mxCell id="_7oDfedrvnOzriQi7gFX-22" value="2D卷积块" style="rounded=0;whiteSpace=wrap;html=1;rotation=-90;fontSize=25;fontFamily=Times New Roman;fillColor=#dae8fc;strokeColor=#6c8ebf;" vertex="1" parent="1">
          <mxGeometry x="440" y="500.28999999999996" width="320" height="40" as="geometry" />
        </mxCell>
        <mxCell id="_7oDfedrvnOzriQi7gFX-28" style="rounded=0;orthogonalLoop=1;jettySize=auto;html=1;entryX=0.5;entryY=0;entryDx=0;entryDy=0;" edge="1" parent="1" source="_7oDfedrvnOzriQi7gFX-24" target="_7oDfedrvnOzriQi7gFX-27">
          <mxGeometry relative="1" as="geometry" />
        </mxCell>
        <mxCell id="_7oDfedrvnOzriQi7gFX-24" value="2D卷积块" style="rounded=0;whiteSpace=wrap;html=1;rotation=-90;fontSize=25;fontFamily=Times New Roman;fillColor=#dae8fc;strokeColor=#6c8ebf;" vertex="1" parent="1">
          <mxGeometry x="521" y="500" width="320" height="40" as="geometry" />
        </mxCell>
        <mxCell id="_7oDfedrvnOzriQi7gFX-35" style="edgeStyle=none;shape=connector;rounded=0;orthogonalLoop=1;jettySize=auto;html=1;exitX=0.5;exitY=1;exitDx=0;exitDy=0;entryX=0;entryY=0.5;entryDx=0;entryDy=0;strokeColor=default;align=center;verticalAlign=middle;fontFamily=Helvetica;fontSize=11;fontColor=default;labelBackgroundColor=default;endArrow=classic;" edge="1" parent="1" source="_7oDfedrvnOzriQi7gFX-27" target="_7oDfedrvnOzriQi7gFX-32">
          <mxGeometry relative="1" as="geometry" />
        </mxCell>
        <mxCell id="_7oDfedrvnOzriQi7gFX-27" value="2D卷积块" style="rounded=0;whiteSpace=wrap;html=1;rotation=-90;fontSize=25;fontFamily=Times New Roman;fillColor=#dae8fc;strokeColor=#6c8ebf;" vertex="1" parent="1">
          <mxGeometry x="600" y="500" width="320" height="40" as="geometry" />
        </mxCell>
        <mxCell id="_7oDfedrvnOzriQi7gFX-38" style="edgeStyle=none;shape=connector;rounded=0;orthogonalLoop=1;jettySize=auto;html=1;entryX=0.5;entryY=0;entryDx=0;entryDy=0;strokeColor=default;align=center;verticalAlign=middle;fontFamily=Helvetica;fontSize=11;fontColor=default;labelBackgroundColor=default;endArrow=classic;" edge="1" parent="1" source="_7oDfedrvnOzriQi7gFX-32" target="_7oDfedrvnOzriQi7gFX-37">
          <mxGeometry relative="1" as="geometry" />
        </mxCell>
        <mxCell id="_7oDfedrvnOzriQi7gFX-32" value="" style="shape=orEllipse;perimeter=ellipsePerimeter;whiteSpace=wrap;html=1;backgroundOutline=1;fontFamily=Helvetica;fontSize=11;fontColor=default;labelBackgroundColor=default;fillColor=none;" vertex="1" parent="1">
          <mxGeometry x="835" y="505.28999999999996" width="30" height="30" as="geometry" />
        </mxCell>
        <mxCell id="_7oDfedrvnOzriQi7gFX-40" style="edgeStyle=none;shape=connector;rounded=0;orthogonalLoop=1;jettySize=auto;html=1;entryX=0;entryY=0.5;entryDx=0;entryDy=0;strokeColor=default;align=center;verticalAlign=middle;fontFamily=Helvetica;fontSize=11;fontColor=default;labelBackgroundColor=default;endArrow=classic;" edge="1" parent="1" source="_7oDfedrvnOzriQi7gFX-37" target="_7oDfedrvnOzriQi7gFX-39">
          <mxGeometry relative="1" as="geometry" />
        </mxCell>
        <mxCell id="_7oDfedrvnOzriQi7gFX-60" style="edgeStyle=none;shape=connector;rounded=0;orthogonalLoop=1;jettySize=auto;html=1;exitX=0;exitY=0;exitDx=0;exitDy=0;entryX=1;entryY=0;entryDx=0;entryDy=0;strokeColor=light-dark(#000000, #9577a3);align=center;verticalAlign=middle;fontFamily=Helvetica;fontSize=11;fontColor=default;labelBackgroundColor=default;endArrow=none;dashed=1;endFill=1;fillColor=#e1d5e7;startFill=0;" edge="1" parent="1" source="_7oDfedrvnOzriQi7gFX-37" target="_7oDfedrvnOzriQi7gFX-56">
          <mxGeometry relative="1" as="geometry" />
        </mxCell>
        <mxCell id="_7oDfedrvnOzriQi7gFX-61" style="edgeStyle=none;shape=connector;rounded=0;orthogonalLoop=1;jettySize=auto;html=1;exitX=0;exitY=1;exitDx=0;exitDy=0;entryX=1;entryY=1;entryDx=0;entryDy=0;strokeColor=default;align=center;verticalAlign=middle;fontFamily=Helvetica;fontSize=11;fontColor=default;labelBackgroundColor=default;endArrow=none;startFill=0;dashed=1;" edge="1" parent="1" source="_7oDfedrvnOzriQi7gFX-37" target="_7oDfedrvnOzriQi7gFX-58">
          <mxGeometry relative="1" as="geometry" />
        </mxCell>
        <mxCell id="_7oDfedrvnOzriQi7gFX-37" value="2D反卷积块" style="rounded=0;whiteSpace=wrap;html=1;rotation=-90;fontSize=25;fontFamily=Times New Roman;fillColor=#f8cecc;strokeColor=#b85450;" vertex="1" parent="1">
          <mxGeometry x="760" y="500" width="320" height="40" as="geometry" />
        </mxCell>
        <mxCell id="_7oDfedrvnOzriQi7gFX-43" style="edgeStyle=none;shape=connector;rounded=0;orthogonalLoop=1;jettySize=auto;html=1;entryX=0.5;entryY=0;entryDx=0;entryDy=0;strokeColor=default;align=center;verticalAlign=middle;fontFamily=Helvetica;fontSize=11;fontColor=default;labelBackgroundColor=default;endArrow=classic;" edge="1" parent="1" source="_7oDfedrvnOzriQi7gFX-39" target="_7oDfedrvnOzriQi7gFX-42">
          <mxGeometry relative="1" as="geometry" />
        </mxCell>
        <mxCell id="_7oDfedrvnOzriQi7gFX-39" value="" style="shape=orEllipse;perimeter=ellipsePerimeter;whiteSpace=wrap;html=1;backgroundOutline=1;fontFamily=Helvetica;fontSize=11;fontColor=default;labelBackgroundColor=default;fillColor=none;" vertex="1" parent="1">
          <mxGeometry x="970" y="505" width="30" height="30" as="geometry" />
        </mxCell>
        <mxCell id="_7oDfedrvnOzriQi7gFX-46" style="edgeStyle=none;shape=connector;rounded=0;orthogonalLoop=1;jettySize=auto;html=1;entryX=0;entryY=0.5;entryDx=0;entryDy=0;strokeColor=default;align=center;verticalAlign=middle;fontFamily=Helvetica;fontSize=11;fontColor=default;labelBackgroundColor=default;endArrow=classic;" edge="1" parent="1" source="_7oDfedrvnOzriQi7gFX-42" target="_7oDfedrvnOzriQi7gFX-44">
          <mxGeometry relative="1" as="geometry" />
        </mxCell>
        <mxCell id="_7oDfedrvnOzriQi7gFX-42" value="2D反卷积块" style="rounded=0;whiteSpace=wrap;html=1;rotation=-90;fontSize=25;fontFamily=Times New Roman;fillColor=#f8cecc;strokeColor=#b85450;" vertex="1" parent="1">
          <mxGeometry x="880" y="500.28999999999996" width="320" height="40" as="geometry" />
        </mxCell>
        <mxCell id="_7oDfedrvnOzriQi7gFX-50" style="edgeStyle=none;shape=connector;rounded=0;orthogonalLoop=1;jettySize=auto;html=1;entryX=0.5;entryY=0;entryDx=0;entryDy=0;strokeColor=default;align=center;verticalAlign=middle;fontFamily=Helvetica;fontSize=11;fontColor=default;labelBackgroundColor=default;endArrow=classic;" edge="1" parent="1" source="_7oDfedrvnOzriQi7gFX-44" target="_7oDfedrvnOzriQi7gFX-49">
          <mxGeometry relative="1" as="geometry" />
        </mxCell>
        <mxCell id="_7oDfedrvnOzriQi7gFX-44" value="" style="shape=orEllipse;perimeter=ellipsePerimeter;whiteSpace=wrap;html=1;backgroundOutline=1;fontFamily=Helvetica;fontSize=11;fontColor=default;labelBackgroundColor=default;fillColor=none;" vertex="1" parent="1">
          <mxGeometry x="1091" y="505.28999999999996" width="30" height="30" as="geometry" />
        </mxCell>
        <mxCell id="_7oDfedrvnOzriQi7gFX-49" value="2D反卷积块" style="rounded=0;whiteSpace=wrap;html=1;rotation=-90;fontSize=25;fontFamily=Times New Roman;fillColor=#f8cecc;strokeColor=#b85450;" vertex="1" parent="1">
          <mxGeometry x="1010" y="500" width="320" height="40" as="geometry" />
        </mxCell>
        <mxCell id="_7oDfedrvnOzriQi7gFX-52" style="edgeStyle=none;shape=connector;rounded=0;orthogonalLoop=1;jettySize=auto;html=1;strokeColor=default;align=center;verticalAlign=middle;fontFamily=Helvetica;fontSize=11;fontColor=default;labelBackgroundColor=default;endArrow=classic;entryX=0;entryY=0.5;entryDx=0;entryDy=0;" edge="1" parent="1" source="_7oDfedrvnOzriQi7gFX-51" target="_7oDfedrvnOzriQi7gFX-53">
          <mxGeometry relative="1" as="geometry">
            <mxPoint x="1300" y="520.29" as="targetPoint" />
          </mxGeometry>
        </mxCell>
        <mxCell id="_7oDfedrvnOzriQi7gFX-51" value="&lt;font&gt;2D卷积，卷积核3，填充1，步长1&lt;/font&gt;" style="rounded=0;whiteSpace=wrap;html=1;rotation=-90;fontSize=20;fontFamily=Times New Roman;fillColor=#dae8fc;strokeColor=#6c8ebf;" vertex="1" parent="1">
          <mxGeometry x="1050" y="500.28999999999996" width="320" height="40" as="geometry" />
        </mxCell>
        <mxCell id="_7oDfedrvnOzriQi7gFX-53" value="相关性体积&lt;br&gt;&lt;div&gt;形状: B, D, H, W&lt;/div&gt;" style="text;html=1;align=center;verticalAlign=middle;whiteSpace=wrap;rounded=0;fontFamily=Times New Roman;fontSize=25;" vertex="1" parent="1">
          <mxGeometry x="1290" y="487.3700000000001" width="220" height="65.26" as="geometry" />
        </mxCell>
        <mxCell id="_7oDfedrvnOzriQi7gFX-56" value="&lt;font&gt;2D反卷积，卷积核3，填充1，步长2&lt;/font&gt;" style="rounded=0;whiteSpace=wrap;html=1;rotation=-90;fontSize=20;fontFamily=Times New Roman;fillColor=#f8cecc;strokeColor=#b85450;" vertex="1" parent="1">
          <mxGeometry x="721" y="850" width="320" height="40" as="geometry" />
        </mxCell>
        <mxCell id="_7oDfedrvnOzriQi7gFX-57" value="批处理归一化" style="rounded=0;whiteSpace=wrap;html=1;rotation=-90;fontSize=20;fontFamily=Times New Roman;fillColor=#d5e8d4;strokeColor=#82b366;" vertex="1" parent="1">
          <mxGeometry x="761" y="850.29" width="320" height="40" as="geometry" />
        </mxCell>
        <mxCell id="_7oDfedrvnOzriQi7gFX-58" value="ReLU激活函数" style="rounded=0;whiteSpace=wrap;html=1;rotation=-90;fontSize=20;fontFamily=Times New Roman;fillColor=#fff2cc;strokeColor=#d6b656;" vertex="1" parent="1">
          <mxGeometry x="801" y="850.5799999999999" width="320" height="40" as="geometry" />
        </mxCell>
      </root>
    </mxGraphModel>
  </diagram>
</mxfile>
